<svg width="92" height="22" xmlns="http://www.w3.org/2000/svg">
    <g fill="#FFF" fill-rule="nonzero">
        <path d="M15.1 10.237 4.142 21.966a.108.108 0 0 1-.185-.087l1.223-9.934H.108a.108.108 0 0 1-.08-.182L10.988.034a.108.108 0 0 1 .185.087l-1.223 9.934h5.072c.095 0 .144.113.079.182zM29.83 8.426h2.727v6.601h2.933V1.66h-2.932v4.06h-2.726V1.868H26.9V4.72h-4.296V1.867H19.67v10.558h10.162v-4h-.001zm-2.931 1.5h-4.296v-2.75H26.9v2.75zM21.24 13.987v6.246H35.8v-2.58H24.212v-3.666zM41.118 11.404a31.783 31.783 0 0 1-3.336 6.143l2.374 1.48a48.256 48.256 0 0 0 1.983-3.322 32.55 32.55 0 0 0 1.776-3.863 36.562 36.562 0 0 0 1.394-4.488c.393-1.603.671-3.336.836-5.196h-7.848V4.74h4.709a26.358 26.358 0 0 1-.734 3.332 32.255 32.255 0 0 1-1.154 3.33zM50.051 11.03h1.839v9.33h2.85V1.66h-2.85v6.538h-1.839V1.762h-2.808v18.243h2.808zM59.067 7.333a27.855 27.855 0 0 1-1.559 1.687 17.406 17.406 0 0 1-1.61 1.427l1.92 1.916a22.015 22.015 0 0 0 2.046-1.884 31.743 31.743 0 0 0 1.96-2.238l.075-.098 5.007 3.553 1.631-2.227-5.182-3.344c.052-.08.11-.16.163-.238.316-.493.598-.97.852-1.437h3.423V1.91H56.887v2.54h4.25c-.206.35-.424.7-.665 1.053a22.83 22.83 0 0 1-1.405 1.83zM62.423 20.464c.358.027.781.044 1.27.05a117.559 117.559 0 0 0 3.037 0c.488-.006.912-.023 1.27-.05 1.541-.113 2.737-.473 3.583-1.083.847-.612 1.27-1.535 1.27-2.771 0-1.237-.423-2.163-1.27-2.78-.846-.618-2.042-.975-3.583-1.073a23.452 23.452 0 0 0-1.29-.052c-.49-.006-.992-.01-1.509-.01-.516 0-1.018.007-1.507.021-.488.016-.913.028-1.27.043-1.544.112-2.738.472-3.584 1.083-.847.611-1.27 1.533-1.27 2.77 0 1.235.423 2.159 1.27 2.77.846.61 2.04.97 3.583 1.082zm-1.29-4.77c.31-.237.815-.39 1.517-.46.345-.027.74-.047 1.188-.063a43.36 43.36 0 0 1 2.748 0c.446.016.842.036 1.188.063.703.07 1.208.222 1.519.46a1.1 1.1 0 0 1 .464.916c0 .376-.155.681-.464.917-.31.235-.816.387-1.52.456-.345.029-.739.05-1.187.064-.448.014-.905.02-1.373.02-.47 0-.927-.006-1.375-.02a22.194 22.194 0 0 1-1.188-.064c-.702-.07-1.207-.22-1.518-.456a1.098 1.098 0 0 1-.464-.917c-.001-.375.154-.68.464-.916zM72.543 8.155h2.045V5.45h-2.045v-3.79H69.61v10.87h2.933zM89.067 20.36H92V1.66h-2.933v6.808h-2.934v2.707h2.934z"/>
        <path d="m87.62 15.694-8.508.332v-4.89h6.03V8.633h-6.03V4.595h6.484V2.012h-9.418v16.702l11.442-.561z"/>
    </g>
</svg>
