<svg xmlns="http://www.w3.org/2000/svg" width="125" height="30" viewBox="0 0 125 30">
    <g fill="none" fill-rule="evenodd">
        <g fill="#D70C18" fill-rule="nonzero">
            <g>
                <g>
                    <path d="M20.516 13.96L5.628 29.953c-.097.103-.269.024-.252-.119l1.662-13.546H.147c-.13 0-.194-.153-.108-.248L14.927.047c.097-.103.27-.024.252.119l-1.661 13.546h6.89c.13 0 .197.153.108.248z" transform="translate(-3139 -2271) translate(3139 2242) translate(0 29)"/>
                    <g>
                        <path d="M13.806 9.226h3.703v9.003h3.986V0h-3.983v5.538h-3.704V.282H9.822v3.891H3.986V.283H0V14.68h13.808V9.226h-.002zm-3.984 2.046H3.986V7.523h5.836v3.75zM2.133 16.81L2.133 25.327 21.917 25.327 21.917 21.809 6.172 21.809 6.172 16.81zM29.141 13.288c-.607 1.498-1.295 2.949-2.061 4.36-.769 1.41-1.59 2.751-2.47 4.017l3.225 2.017c.917-1.403 1.814-2.912 2.694-4.529.88-1.619 1.683-3.373 2.413-5.268.73-1.893 1.36-3.934 1.894-6.12.534-2.186.912-4.549 1.136-7.086H25.31v3.522h6.398c-.226 1.497-.558 3.012-.997 4.545-.437 1.532-.96 3.046-1.569 4.542zM41.279 12.777L43.778 12.777 43.778 25.5 47.649 25.5 47.649 0 43.778 0 43.778 8.916 41.279 8.916 41.279.14 37.463.14 37.463 25.017 41.279 25.017zM53.529 7.737c-.682.804-1.388 1.571-2.118 2.3-.73.73-1.459 1.377-2.189 1.947l2.611 2.612c.917-.74 1.842-1.595 2.778-2.57.936-.974 1.823-1.993 2.665-3.052l.1-.133 6.803 4.846 2.217-3.038-7.042-4.56c.072-.11.151-.217.222-.325.43-.672.814-1.323 1.158-1.96h4.65V.342H50.569v3.464h5.774c-.28.476-.577.955-.904 1.435-.592.86-1.227 1.693-1.91 2.497zM58.09 25.642c.485.037 1.06.06 1.725.069.665.009 1.352.013 2.064.013.71 0 1.397-.004 2.062-.013.662-.009 1.24-.032 1.726-.069 2.094-.153 3.718-.645 4.868-1.477 1.15-.834 1.726-2.093 1.726-3.779 0-1.685-.575-2.949-1.726-3.79-1.15-.842-2.774-1.33-4.868-1.463-.506-.037-1.092-.06-1.754-.071-.665-.009-1.348-.013-2.05-.013-.7 0-1.383.009-2.048.028-.663.021-1.24.039-1.726.058-2.096.153-3.719.645-4.868 1.477-1.151.834-1.726 2.09-1.726 3.777 0 1.685.575 2.944 1.726 3.779 1.15.83 2.772 1.321 4.868 1.474zm-1.755-6.504c.422-.323 1.108-.532 2.062-.627.469-.037 1.005-.065 1.614-.086.609-.02 1.23-.028 1.868-.028.637 0 1.257.008 1.866.028.607.021 1.145.05 1.614.086.955.095 1.642.302 2.064.627.42.321.63.738.63 1.248 0 .513-.21.93-.63 1.25-.422.322-1.109.529-2.064.624-.47.039-1.005.067-1.614.086-.61.02-1.23.028-1.866.028-.637 0-1.26-.009-1.868-.028-.607-.02-1.145-.045-1.614-.086-.954-.095-1.64-.302-2.062-.623-.422-.321-.63-.738-.63-1.25-.003-.511.208-.928.63-1.249zM71.839 8.858L74.617 8.858 74.617 5.167 71.839 5.167 71.839 0 67.853 0 67.853 14.823 71.839 14.823zM94.289 25.5L98.275 25.5 98.275 0 94.289 0 94.289 9.285 90.304 9.285 90.304 12.975 94.289 12.975z" transform="translate(-3139 -2271) translate(3139 2242) translate(0 29) translate(26.725 2.263)"/>
                        <path d="M92.324 19.138L80.763 19.591 80.763 12.921 88.956 12.921 88.956 9.511 80.763 9.511 80.763 4.003 89.574 4.003 89.574 0.481 76.778 0.481 76.778 23.256 92.324 22.49z" transform="translate(-3139 -2271) translate(3139 2242) translate(0 29) translate(26.725 2.263)"/>
                    </g>
                </g>
            </g>
        </g>
    </g>
</svg>
